<svg width="512" height="512" viewBox="0 0 512 512" fill="none" xmlns="http://www.w3.org/2000/svg">
<path d="M436 256C436 294.012 423.966 331.049 401.623 361.801C379.28 392.554 347.775 415.444 311.623 427.19C275.471 438.937 236.529 438.937 200.377 427.19C164.225 415.444 132.72 392.554 110.377 361.801C88.0339 331.049 76 294.012 76 256C76 217.988 88.0338 180.951 110.377 150.199C132.72 119.446 164.225 96.5564 200.377 84.8099C236.529 73.0634 275.471 73.0634 311.623 84.8098L297.717 127.607C270.603 118.798 241.396 118.798 214.283 127.607C187.169 136.417 163.54 153.585 146.783 176.649C130.025 199.714 121 227.491 121 256C121 284.509 130.025 312.287 146.783 335.351C163.54 358.415 187.169 375.583 214.283 384.393C241.397 393.202 270.603 393.202 297.717 384.393C324.831 375.583 348.46 358.415 365.217 335.351C381.975 312.287 391 284.509 391 256H436Z" fill="#6E91AA" fill-opacity="0.5"/>
<path d="M121 256C121 227.491 130.025 199.713 146.783 176.649C163.54 153.585 187.169 136.417 214.283 127.607C241.396 118.798 270.603 118.798 297.717 127.607C324.831 136.417 348.46 153.584 365.217 176.649C381.974 199.713 391 227.491 391 256C391 284.509 381.975 312.286 365.217 335.351C348.46 358.415 324.831 375.583 297.718 384.393C270.604 393.202 241.397 393.202 214.283 384.393L224.712 352.295C245.048 358.902 266.953 358.902 287.288 352.294C307.624 345.687 325.345 332.811 337.913 315.513C350.481 298.215 357.25 277.382 357.25 256C357.25 234.618 350.481 213.785 337.913 196.487C325.345 179.188 307.623 166.313 287.288 159.705C266.952 153.098 245.047 153.098 224.712 159.706C204.377 166.313 186.655 179.188 174.087 196.487C161.519 213.785 154.75 234.618 154.75 256L121 256Z" fill="#6E91AA" fill-opacity="0.8"/>
</svg>
